<svg width="512" height="512" viewBox="0 0 512 512" fill="none" xmlns="http://www.w3.org/2000/svg">
<path d="M256 0C397.385 0 512 114.615 512 256C512 397.385 397.385 512 256 512C114.615 512 0 397.385 0 256C0 114.615 114.615 0 256 0ZM252 68C236.536 68 224 80.536 224 96V187.045C198.016 199.124 180 225.458 180 256C180 297.974 214.026 332 256 332C297.974 332 332 297.974 332 256C332 225.458 313.984 199.124 288 187.045V96C288 80.536 275.464 68 260 68H252ZM90 224C72.3269 224 58 238.327 58 256C58 273.673 72.3269 288 90 288C107.673 288 122 273.673 122 256C122 238.327 107.673 224 90 224ZM256 224C273.673 224 288 238.327 288 256C288 273.673 273.673 288 256 288C238.327 288 224 273.673 224 256C224 238.327 238.327 224 256 224ZM422 224C404.327 224 390 238.327 390 256C390 273.673 404.327 288 422 288C439.673 288 454 273.673 454 256C454 238.327 439.673 224 422 224Z" fill="#007BFF"/>
</svg>
