<svg width="1024" height="1024" viewBox="0 0 1024 1024" fill="none" xmlns="http://www.w3.org/2000/svg">
<path d="M512 128C724.077 128 896 299.923 896 512C896 724.077 724.077 896 512 896C299.923 896 128 724.077 128 512C128 299.923 299.923 128 512 128ZM492 230C476.536 230 464 242.536 464 258V408.568C425.024 426.687 398 466.187 398 512C398 574.96 449.04 626 512 626C574.96 626 626 574.96 626 512C626 466.187 598.976 426.687 560 408.568V258C560 242.536 547.464 230 532 230H492ZM263 464C236.49 464 215 485.49 215 512C215 538.51 236.49 560 263 560C289.51 560 311 538.51 311 512C311 485.49 289.51 464 263 464ZM512 464C538.51 464 560 485.49 560 512C560 538.51 538.51 560 512 560C485.49 560 464 538.51 464 512C464 485.49 485.49 464 512 464ZM761 464C734.49 464 713 485.49 713 512C713 538.51 734.49 560 761 560C787.51 560 809 538.51 809 512C809 485.49 787.51 464 761 464Z" fill="#007BFF"/>
</svg>
